<svg xmlns="http://www.w3.org/2000/svg" version="1.1" xmlns:xlink="http://www.w3.org/1999/xlink" xmlns:svgjs="http://svgjs.dev/svgjs" width="1440" height="560" preserveAspectRatio="none" viewBox="0 0 1440 560"><g mask="url(&quot;#SvgjsMask1015&quot;)" fill="none"><rect width="156" height="156" clip-path="url(&quot;#SvgjsClipPath1016&quot;)" x="-39.1" y="371.31" fill="url(&quot;#SvgjsPattern1017&quot;)" transform="rotate(353.86, 38.9, 449.31)"></rect><path d="M223.63000000000002 312.58 L364.99 238L360.6951420213427 341.6751420213427z" stroke="#e73635" stroke-width="1.16" stroke-dasharray="4, 4"></path><rect width="336" height="336" clip-path="url(&quot;#SvgjsClipPath1018&quot;)" x="1065.35" y="159.66" fill="url(&quot;#SvgjsPattern1019&quot;)" transform="rotate(134.6, 1233.35, 327.66)"></rect><path d="M409.49 312.47a5.6 5.6 0 1 0-1.32-11.12 5.6 5.6 0 1 0 1.32 11.12zM407.6 296.58a5.6 5.6 0 1 0-1.32-11.12 5.6 5.6 0 1 0 1.32 11.12zM405.71 280.69a5.6 5.6 0 1 0-1.32-11.12 5.6 5.6 0 1 0 1.32 11.12zM403.82 264.8a5.6 5.6 0 1 0-1.33-11.12 5.6 5.6 0 1 0 1.33 11.12z" stroke="#d3b714" stroke-width="2.24" stroke-dasharray="2, 2"></path><path d="M376.03 425.6L388.67 423.55 393.45 435.43 406.09 433.38 410.86 445.27 423.5 443.22 428.28 455.1" stroke="#e73635" stroke-width="1.14"></path><rect width="109.4" height="109.4" clip-path="url(&quot;#SvgjsClipPath1020&quot;)" x="928.06" y="232.66" fill="url(&quot;#SvgjsPattern1021&quot;)" transform="rotate(203.16, 982.76, 287.36)"></rect><path d="M1044.05 268.98L1031.55 266.16 1031.56 253.35 1019.07 250.53 1019.08 237.72 1006.59 234.9 1006.6 222.1M1050.3 263.98L1037.8 261.16 1037.81 248.36 1025.32 245.54 1025.33 232.73 1012.84 229.91 1012.85 217.1M1056.55 258.99L1044.05 256.17 1044.06 243.36 1031.57 240.54 1031.58 227.74 1019.09 224.92 1019.1 212.11" stroke="#037b0b" stroke-width="2.32" stroke-dasharray="4, 4"></path><path d="M338.81 445.56 L231.65 590.77L367.97800410012735 600.9130041001273z" fill="#037b0b"></path><rect width="171.64" height="171.64" clip-path="url(&quot;#SvgjsClipPath1022&quot;)" x="1198.31" y="339.86" fill="url(&quot;#SvgjsPattern1023&quot;)" transform="rotate(310.37, 1284.13, 425.68)"></rect><rect width="60" height="60" clip-path="url(&quot;#SvgjsClipPath1024&quot;)" x="985.29" y="62.1" fill="url(&quot;#SvgjsPattern1025&quot;)" transform="rotate(346.77, 1015.29, 92.1)"></rect><rect width="60" height="60" clip-path="url(&quot;#SvgjsClipPath1026&quot;)" x="1228.87" y="73.22" fill="url(&quot;#SvgjsPattern1027&quot;)" transform="rotate(155.23, 1258.87, 103.22)"></rect><path d="M219.61 454.2L211.24 463.89 199.95 457.84 191.58 467.53 180.28 461.49 171.91 471.18 160.62 465.13M218.16 446.33L209.78 456.02 198.49 449.98 190.12 459.67 178.83 453.62 170.45 463.31 159.16 457.27M216.7 438.47L208.32 448.16 197.03 442.11 188.66 451.8 177.37 445.76 168.99 455.44 157.7 449.4" stroke="#037b0b" stroke-width="1" stroke-dasharray="3, 2"></path></g><defs><mask id="SvgjsMask1015"><rect width="1440" height="560" fill="#ffffff"></rect></mask><pattern x="0" y="0" width="6" height="6" patternUnits="userSpaceOnUse" id="SvgjsPattern1017"><path d="M0 6L3 0L6 6" stroke="#d3b714" fill="none"></path></pattern><clipPath id="SvgjsClipPath1016"><circle r="39" cx="38.9" cy="449.31"></circle></clipPath><pattern x="0" y="0" width="6" height="6" patternUnits="userSpaceOnUse" id="SvgjsPattern1019"><path d="M0 6L3 0L6 6" stroke="#e73635" fill="none"></path></pattern><clipPath id="SvgjsClipPath1018"><circle r="84" cx="1233.35" cy="327.66"></circle></clipPath><pattern x="0" y="0" width="109.4" height="10.94" patternUnits="userSpaceOnUse" id="SvgjsPattern1021"><rect width="109.4" height="5.47" x="0" y="0" fill="#037b0b"></rect><rect width="109.4" height="5.47" x="0" y="5.47" fill="rgba(0, 0, 0, 0)"></rect></pattern><clipPath id="SvgjsClipPath1020"><circle r="27.35" cx="982.76" cy="287.36"></circle></clipPath><pattern x="0" y="0" width="12.26" height="12.26" patternUnits="userSpaceOnUse" id="SvgjsPattern1023"><path d="M0 12.26L6.13 0L12.26 12.26" stroke="#e73635" fill="none"></path></pattern><clipPath id="SvgjsClipPath1022"><circle r="42.91" cx="1284.13" cy="425.68"></circle></clipPath><pattern x="0" y="0" width="60" height="6" patternUnits="userSpaceOnUse" id="SvgjsPattern1025"><rect width="60" height="3" x="0" y="0" fill="#e73635"></rect><rect width="60" height="3" x="0" y="3" fill="rgba(0, 0, 0, 0)"></rect></pattern><clipPath id="SvgjsClipPath1024"><circle r="15" cx="1015.29" cy="92.1"></circle></clipPath><pattern x="0" y="0" width="6" height="6" patternUnits="userSpaceOnUse" id="SvgjsPattern1027"><path d="M0 6L3 0L6 6" stroke="#037b0b" fill="none"></path></pattern><clipPath id="SvgjsClipPath1026"><circle r="15" cx="1258.87" cy="103.22"></circle></clipPath></defs></svg>