<svg width="120" height="120" viewBox="0 0 120 120" fill="none" xmlns="http://www.w3.org/2000/svg">
  <!-- Background gradient -->
  <defs>
    <linearGradient id="bgGradient" x1="0%" y1="0%" x2="100%" y2="100%">
      <stop offset="0%" style="stop-color:#3B82F6;stop-opacity:1" />
      <stop offset="50%" style="stop-color:#8B5CF6;stop-opacity:1" />
      <stop offset="100%" style="stop-color:#06B6D4;stop-opacity:1" />
    </linearGradient>
    <linearGradient id="textGradient" x1="0%" y1="0%" x2="100%" y2="100%">
      <stop offset="0%" style="stop-color:#FFFFFF;stop-opacity:1" />
      <stop offset="100%" style="stop-color:#F8FAFC;stop-opacity:1" />
    </linearGradient>
    <filter id="glow" x="-50%" y="-50%" width="200%" height="200%">
      <feGaussianBlur stdDeviation="3" result="coloredBlur"/>
      <feMerge>
        <feMergeNode in="coloredBlur"/>
        <feMergeNode in="SourceGraphic"/>
      </feMerge>
    </filter>
  </defs>

  <!-- Main circle background -->
  <circle cx="60" cy="60" r="55" fill="url(#bgGradient)" filter="url(#glow)"/>

  <!-- Inner circle for depth -->
  <circle cx="60" cy="60" r="45" fill="rgba(255,255,255,0.1)"/>

  <!-- Book icon representing courses -->
  <g transform="translate(30, 35)">
    <!-- Book spine -->
    <rect x="0" y="5" width="8" height="35" rx="2" fill="url(#textGradient)"/>
    <!-- Book pages -->
    <rect x="8" y="5" width="25" height="35" rx="2" fill="url(#textGradient)" opacity="0.9"/>
    <!-- Book lines -->
    <line x1="12" y1="12" x2="28" y2="12" stroke="rgba(59,130,246,0.3)" stroke-width="1"/>
    <line x1="12" y1="18" x2="28" y2="18" stroke="rgba(59,130,246,0.3)" stroke-width="1"/>
    <line x1="12" y1="24" x2="28" y2="24" stroke="rgba(59,130,246,0.3)" stroke-width="1"/>
    <line x1="12" y1="30" x2="28" y2="30" stroke="rgba(59,130,246,0.3)" stroke-width="1"/>
  </g>

  <!-- AI brain/spark icon -->
  <g transform="translate(70, 25)">
    <!-- Brain outline -->
    <path d="M15 8c-2-1-4-1-6 0s-3 3-3 5c0 1 0 2 1 3c1 1 2 1 3 1s2 0 3-1c1-1 1-2 1-3c0-2-1-4-3-5z" fill="url(#textGradient)" opacity="0.9"/>
    <!-- Neural connections -->
    <circle cx="12" cy="10" r="1" fill="rgba(139,92,246,0.8)"/>
    <circle cx="18" cy="10" r="1" fill="rgba(139,92,246,0.8)"/>
    <circle cx="15" cy="15" r="1" fill="rgba(6,182,212,0.8)"/>
    <!-- Connection lines -->
    <line x1="12" y1="10" x2="15" y2="15" stroke="rgba(139,92,246,0.6)" stroke-width="1"/>
    <line x1="18" y1="10" x2="15" y2="15" stroke="rgba(139,92,246,0.6)" stroke-width="1"/>
  </g>

  <!-- Spark particles around the logo -->
  <g opacity="0.7">
    <circle cx="25" cy="30" r="1.5" fill="#FFFFFF"/>
    <circle cx="95" cy="25" r="1" fill="#FFFFFF"/>
    <circle cx="20" cy="85" r="1" fill="#FFFFFF"/>
    <circle cx="100" cy="90" r="1.5" fill="#FFFFFF"/>
    <circle cx="15" cy="55" r="1" fill="#FFFFFF"/>
    <circle cx="105" cy="60" r="1" fill="#FFFFFF"/>
  </g>
</svg>
