<svg width="400" height="225" viewBox="0 0 400 225" fill="none" xmlns="http://www.w3.org/2000/svg">
  <!-- Background gradient - Creative theme -->
  <defs>
    <linearGradient id="bgGradient" x1="0%" y1="0%" x2="100%" y2="100%">
      <stop offset="0%" style="stop-color:#ec4899;stop-opacity:1" />
      <stop offset="100%" style="stop-color:#f97316;stop-opacity:1" />
    </linearGradient>
    <linearGradient id="paletteGradient" x1="0%" y1="0%" x2="100%" y2="100%">
      <stop offset="0%" style="stop-color:#ffffff;stop-opacity:1" />
      <stop offset="100%" style="stop-color:#f8fafc;stop-opacity:1" />
    </linearGradient>
  </defs>

  <!-- Background -->
  <rect width="400" height="225" fill="url(#bgGradient)"/>

  <!-- Color palette -->
  <g transform="translate(80, 70)">
    <!-- Palette base -->
    <ellipse cx="60" cy="60" rx="50" ry="35" fill="url(#paletteGradient)" stroke="#e2e8f0" stroke-width="2"/>
    <!-- Color circles -->
    <circle cx="45" cy="50" r="8" fill="#ef4444"/>
    <circle cx="60" cy="45" r="8" fill="#3b82f6"/>
    <circle cx="75" cy="50" r="8" fill="#10b981"/>
    <circle cx="50" cy="65" r="8" fill="#f59e0b"/>
    <circle cx="70" cy="65" r="8" fill="#8b5cf6"/>
  </g>

  <!-- Paint brush -->
  <g transform="translate(200, 60)">
    <!-- Brush handle -->
    <rect x="5" y="20" width="6" height="40" rx="3" fill="#8b4513"/>
    <!-- Brush head -->
    <rect x="0" y="15" width="16" height="10" rx="8" fill="#2d3748"/>
    <!-- Brush bristles -->
    <rect x="2" y="5" width="2" height="15" fill="#4a5568"/>
    <rect x="6" y="5" width="2" height="15" fill="#4a5568"/>
    <rect x="10" y="5" width="2" height="15" fill="#4a5568"/>
    <rect x="14" y="5" width="2" height="15" fill="#4a5568"/>
  </g>

  <!-- Art tools -->
  <g transform="translate(300, 120)">
    <!-- Pencil -->
    <rect x="0" y="10" width="25" height="4" rx="2" fill="#fbbf24"/>
    <polygon points="25,8 30,12 25,16" fill="#fbbf24"/>
    <rect x="26" y="10" width="2" height="4" fill="#f59e0b"/>
  </g>

  <!-- Creative elements -->
  <g transform="translate(50, 150)">
    <!-- Swirl -->
    <path d="M10,10 Q20,0 30,10 Q40,20 30,30 Q20,40 10,30 Q0,20 10,10" fill="none" stroke="#ffffff" stroke-width="2"/>
  </g>

  <g transform="translate(320, 50)">
    <!-- Star -->
    <polygon points="10,0 12,7 20,7 14,12 16,20 10,15 4,20 6,12 0,7 8,7" fill="#ffffff"/>
  </g>

  <!-- Decorative elements -->
  <circle cx="350" cy="170" r="30" fill="rgba(255,255,255,0.1)"/>
  <circle cx="40" cy="40" r="20" fill="rgba(255,255,255,0.08)"/>
</svg>
