<?xml version="1.0" encoding="utf-8"?><svg version="1.1" id="Layer_1" xmlns="http://www.w3.org/2000/svg" xmlns:xlink="http://www.w3.org/1999/xlink" x="0px" y="0px" viewBox="0 0 122.88 110.35" style="enable-background:new 0 0 122.88 110.35" xml:space="preserve"><g><path d="M6.32,0v6.22h12.22V0h6.32v14.88h73.15V0h6.32v6.22h12.22V0h6.32v110.35h-6.32v-7.19h-12.22v7.19h-6.32V94.79H24.87v15.56 h-6.32v-7.19H6.32v7.19H0V0H6.32L6.32,0z M39.15,44.13h6.82v7.71h7.46v-7.71h6.85v22.08h-6.85v-8.94h-7.46v8.94h-6.82V44.13 L39.15,44.13z M64.44,44.13h10.14c1.99,0,3.61,0.27,4.84,0.81c1.23,0.54,2.25,1.32,3.05,2.33c0.8,1.02,1.38,2.19,1.74,3.54 c0.37,1.35,0.54,2.77,0.54,4.28c0,2.36-0.27,4.19-0.81,5.49c-0.53,1.3-1.28,2.39-2.24,3.27c-0.96,0.88-1.98,1.46-3.07,1.76 c-1.5,0.4-2.85,0.6-4.07,0.6H64.44V44.13L64.44,44.13z M71.25,49.13v12.06h1.68c1.43,0,2.45-0.16,3.05-0.47 c0.6-0.32,1.07-0.87,1.42-1.65c0.34-0.79,0.51-2.07,0.51-3.83c0-2.34-0.38-3.94-1.15-4.8c-0.77-0.86-2.04-1.3-3.81-1.3H71.25 L71.25,49.13z M98.01,21.2H24.87v67.27h73.15V21.2L98.01,21.2z M116.56,96.84v-11.8h-12.22v11.8H116.56L116.56,96.84z M116.56,78.72v-11.8h-12.22v11.8H116.56L116.56,78.72z M116.56,60.59v-11.8h-12.22v11.8H116.56L116.56,60.59z M116.56,42.47v-11.8 h-12.22v11.8H116.56L116.56,42.47z M116.56,24.35v-11.8h-12.22v11.8H116.56L116.56,24.35z M18.54,96.84v-11.8H6.32v11.8H18.54 L18.54,96.84z M18.54,78.72v-11.8H6.32v11.8H18.54L18.54,78.72z M18.54,60.59v-11.8H6.32v11.8H18.54L18.54,60.59z M18.54,42.47 v-11.8H6.32v11.8H18.54L18.54,42.47z M18.54,24.35v-11.8H6.32v11.8H18.54L18.54,24.35z"/></g></svg>