<svg width="400" height="200" viewBox="0 0 400 200" fill="none" xmlns="http://www.w3.org/2000/svg">
  <defs>
    <linearGradient id="cloudGradient" x1="0%" y1="0%" x2="100%" y2="100%">
      <stop offset="0%" style="stop-color:#E0F2FE;stop-opacity:1" />
      <stop offset="100%" style="stop-color:#BAE6FD;stop-opacity:1" />
    </linearGradient>
  </defs>
  
  <!-- Background -->
  <rect width="400" height="200" fill="url(#cloudGradient)" />
  
  <!-- Cloud shapes -->
  <g opacity="0.6">
    <!-- Large cloud -->
    <path d="M120 80c0-15 12-27 27-27 8 0 15 3 20 8 5-12 17-20 31-20 18 0 33 15 33 33 0 2 0 4-1 6 9 3 15 11 15 21 0 12-10 22-22 22H147c-15 0-27-12-27-27z" fill="white" opacity="0.8"/>
    
    <!-- Medium cloud -->
    <path d="M280 60c0-11 9-20 20-20 6 0 11 3 15 7 4-9 13-15 23-15 14 0 25 11 25 25 0 1 0 3-1 4 7 2 12 8 12 16 0 9-7 16-16 16H300c-11 0-20-9-20-20z" fill="white" opacity="0.9"/>
    
    <!-- Small cloud -->
    <path d="M50 120c0-8 6-14 14-14 4 0 8 2 10 5 3-6 9-10 16-10 10 0 18 8 18 18 0 1 0 2 0 3 5 1 8 6 8 11 0 6-5 11-11 11H64c-8 0-14-6-14-14z" fill="white" opacity="0.7"/>
  </g>
  
  <!-- Decorative elements -->
  <circle cx="350" cy="50" r="3" fill="white" opacity="0.5"/>
  <circle cx="370" cy="70" r="2" fill="white" opacity="0.6"/>
  <circle cx="30" cy="40" r="2.5" fill="white" opacity="0.4"/>
  <circle cx="60" cy="170" r="1.5" fill="white" opacity="0.5"/>
</svg>
